<svg xmlns="http://www.w3.org/2000/svg" width="18.003" height="18.007"><g data-name="Group 5820"><path data-name="Path 1360" d="M17.958 5.294a6.58 6.58 0 00-.419-2.185A4.613 4.613 0 0014.904.475 6.6 6.6 0 0012.72.056C11.756.011 11.451 0 9.005 0S6.251.011 5.294.053A6.582 6.582 0 003.11.471a4.394 4.394 0 00-1.6 1.041A4.433 4.433 0 00.475 3.106 6.6 6.6 0 00.057 5.29C.011 6.254 0 6.56 0 9.005s.011 2.751.051 3.711A6.579 6.579 0 00.472 14.9a4.612 4.612 0 002.635 2.635 6.6 6.6 0 002.185.419c.96.042 1.266.053 3.711.053s2.751-.01 3.711-.053a6.578 6.578 0 002.184-.419 4.606 4.606 0 002.634-2.635 6.6 6.6 0 00.419-2.185c.042-.96.053-1.266.053-3.711s-.004-2.75-.046-3.71zm-1.622 7.352a4.935 4.935 0 01-.31 1.671 2.987 2.987 0 01-1.71 1.71 4.953 4.953 0 01-1.671.309c-.95.042-1.235.053-3.637.053s-2.691-.01-3.637-.053a4.933 4.933 0 01-1.671-.309 2.771 2.771 0 01-1.034-.672 2.8 2.8 0 01-.672-1.034 4.954 4.954 0 01-.309-1.671c-.042-.95-.053-1.235-.053-3.637s.01-2.691.053-3.637a4.933 4.933 0 01.31-1.676 2.737 2.737 0 01.675-1.03A2.8 2.8 0 013.704 2a4.956 4.956 0 011.671-.31c.95-.042 1.235-.053 3.637-.053s2.691.011 3.637.053a4.936 4.936 0 011.672.31 2.769 2.769 0 011.03.67 2.8 2.8 0 01.676 1.03 4.956 4.956 0 01.31 1.671c.042.95.053 1.235.053 3.637s-.012 2.692-.054 3.638zm0 0"/><path data-name="Path 1361" d="M9.005 4.38a4.626 4.626 0 104.626 4.626A4.627 4.627 0 009.005 4.38zm0 7.626a3 3 0 113-3 3 3 0 01-3 3zm0 0"/><path data-name="Path 1362" d="M14.894 4.196a1.08 1.08 0 11-1.08-1.08 1.08 1.08 0 011.08 1.08zm0 0"/></g></svg>