<svg xmlns="http://www.w3.org/2000/svg" width="19.883" height="16.155"><g data-name="Group 5156"><path data-name="Path 1110" d="M19.883 1.913a8.5 8.5 0 01-2.349.644A4.053 4.053 0 0019.328.3a8.146 8.146 0 01-2.585.987 4.076 4.076 0 00-7.051 2.787 4.2 4.2 0 00.094.93A11.538 11.538 0 011.386.74a4.077 4.077 0 001.253 5.448 4.026 4.026 0 01-1.842-.5v.045a4.1 4.1 0 003.266 4.005 4.068 4.068 0 01-1.069.134 3.6 3.6 0 01-.772-.07 4.115 4.115 0 003.809 2.84 8.19 8.19 0 01-5.055 1.74A7.635 7.635 0 010 14.326a11.476 11.476 0 006.253 1.829 11.522 11.522 0 0011.6-11.6c0-.18-.006-.354-.015-.527a8.132 8.132 0 002.045-2.115z"/></g></svg>