<svg xmlns="http://www.w3.org/2000/svg" width="18.003" height="18.007" viewBox="0 0 18.003 18.007">
  <g id="Group_5820" data-name="Group 5820" transform="translate(-1461 -4053.647)">
    <path id="Path_1360" data-name="Path 1360" d="M18.407,5.294a6.58,6.58,0,0,0-.419-2.185A4.613,4.613,0,0,0,15.353.475,6.6,6.6,0,0,0,13.169.056C12.205.011,11.9,0,9.454,0S6.7.011,5.743.053A6.582,6.582,0,0,0,3.559.471a4.394,4.394,0,0,0-1.6,1.041A4.433,4.433,0,0,0,.924,3.106,6.6,6.6,0,0,0,.506,5.29C.46,6.254.449,6.56.449,9.005S.46,11.756.5,12.716A6.579,6.579,0,0,0,.921,14.9a4.612,4.612,0,0,0,2.635,2.635,6.6,6.6,0,0,0,2.185.419c.96.042,1.266.053,3.711.053s2.751-.01,3.711-.053a6.578,6.578,0,0,0,2.184-.419A4.606,4.606,0,0,0,17.981,14.9a6.6,6.6,0,0,0,.419-2.185c.042-.96.053-1.266.053-3.711S18.449,6.254,18.407,5.294Zm-1.622,7.352a4.935,4.935,0,0,1-.31,1.671,2.987,2.987,0,0,1-1.71,1.71,4.953,4.953,0,0,1-1.671.309c-.95.042-1.235.053-3.637.053s-2.691-.01-3.637-.053a4.933,4.933,0,0,1-1.671-.309,2.771,2.771,0,0,1-1.034-.672,2.8,2.8,0,0,1-.672-1.034,4.954,4.954,0,0,1-.309-1.671c-.042-.95-.053-1.235-.053-3.637s.01-2.691.053-3.637A4.933,4.933,0,0,1,2.444,3.7,2.737,2.737,0,0,1,3.119,2.67,2.8,2.8,0,0,1,4.153,2a4.956,4.956,0,0,1,1.671-.31c.95-.042,1.235-.053,3.637-.053s2.691.011,3.637.053A4.936,4.936,0,0,1,14.77,2,2.769,2.769,0,0,1,15.8,2.67,2.8,2.8,0,0,1,16.476,3.7a4.956,4.956,0,0,1,.31,1.671c.042.95.053,1.235.053,3.637S16.827,11.7,16.785,12.646Zm0,0" transform="translate(1460.551 4053.647)"/>
    <path id="Path_1361" data-name="Path 1361" d="M129.575,124.5a4.626,4.626,0,1,0,4.626,4.626A4.627,4.627,0,0,0,129.575,124.5Zm0,7.626a3,3,0,1,1,3-3A3,3,0,0,1,129.575,132.126Zm0,0" transform="translate(1340.43 3933.527)"/>
    <path id="Path_1362" data-name="Path 1362" d="M364.609,89.681a1.08,1.08,0,1,1-1.08-1.08A1.08,1.08,0,0,1,364.609,89.681Zm0,0" transform="translate(1111.285 3968.162)"/>
  </g>
</svg>
