<svg id="linkedin" xmlns="http://www.w3.org/2000/svg" width="18.155" height="18.155" viewBox="0 0 18.155 18.155">
  <path id="Path_1111" data-name="Path 1111" d="M20.218,20h0V13.341c0-3.257-.7-5.767-4.509-5.767a3.953,3.953,0,0,0-3.561,1.957H12.1V7.878H8.489V20h3.76V14c0-1.58.3-3.108,2.257-3.108,1.928,0,1.957,1.8,1.957,3.21V20Z" transform="translate(-2.067 -1.845)"/>
  <path id="Path_1112" data-name="Path 1112" d="M.4,7.977H4.16V20.1H.4Z" transform="translate(-0.096 -1.943)"/>
  <path id="Path_1113" data-name="Path 1113" d="M2.18,0A2.19,2.19,0,1,0,4.36,2.18,2.181,2.181,0,0,0,2.18,0Z"/>
</svg>
