<svg id="twitter" xmlns="http://www.w3.org/2000/svg" width="19.883" height="16.155" viewBox="0 0 19.883 16.155">
  <g id="Group_5156" data-name="Group 5156">
    <path id="Path_1110" data-name="Path 1110" d="M19.883,49.913a8.5,8.5,0,0,1-2.349.644A4.053,4.053,0,0,0,19.328,48.3a8.146,8.146,0,0,1-2.585.987,4.076,4.076,0,0,0-7.051,2.787,4.2,4.2,0,0,0,.094.93,11.538,11.538,0,0,1-8.4-4.264,4.077,4.077,0,0,0,1.253,5.448,4.026,4.026,0,0,1-1.842-.5v.045a4.1,4.1,0,0,0,3.266,4.005,4.068,4.068,0,0,1-1.069.134,3.6,3.6,0,0,1-.772-.07,4.115,4.115,0,0,0,3.809,2.84A8.19,8.19,0,0,1,.976,62.382,7.635,7.635,0,0,1,0,62.326a11.476,11.476,0,0,0,6.253,1.829,11.522,11.522,0,0,0,11.6-11.6c0-.18-.006-.354-.015-.527A8.132,8.132,0,0,0,19.883,49.913Z" transform="translate(0 -48)"/>
  </g>
</svg>
