<svg xmlns="http://www.w3.org/2000/svg" width="18.546" height="13.156" viewBox="0 0 18.546 13.156">
  <path id="youtube_2_" data-name="youtube (2)" d="M18.135,5.38l.023.152a2.353,2.353,0,0,0-1.6-1.634l-.016,0A54.88,54.88,0,0,0,9.281,3.5a53.672,53.672,0,0,0-7.264.393A2.354,2.354,0,0,0,.407,5.515l0,.016a25.928,25.928,0,0,0,.024,9.246L.4,14.624A2.353,2.353,0,0,0,2,16.259l.016,0a54.761,54.761,0,0,0,7.264.394,54.892,54.892,0,0,0,7.264-.394,2.354,2.354,0,0,0,1.61-1.622l0-.016a24.232,24.232,0,0,0,.386-4.371c0-.056,0-.114,0-.171s0-.115,0-.178a25,25,0,0,0-.41-4.524ZM7.424,12.9V7.26l4.842,2.826Z" transform="translate(0 -3.5)"/>
</svg>
